<?xml version="1.0" encoding="UTF-8" standalone="no"?>
<!-- Created with Inkscape (http://www.inkscape.org/) -->

<svg
   width="48mm"
   height="32mm"
   viewBox="0 0 48 32"
   version="1.1"
   id="svg1"
   inkscape:version="1.3.2 (091e20e, 2023-11-25, custom)"
   sodipodi:docname="abstract_corner.svg"
   xmlns:inkscape="http://www.inkscape.org/namespaces/inkscape"
   xmlns:sodipodi="http://sodipodi.sourceforge.net/DTD/sodipodi-0.dtd"
   xmlns="http://www.w3.org/2000/svg"
   xmlns:svg="http://www.w3.org/2000/svg">
  <sodipodi:namedview
     id="namedview1"
     pagecolor="#ffffff"
     bordercolor="#000000"
     borderopacity="0.25"
     inkscape:showpageshadow="2"
     inkscape:pageopacity="0.0"
     inkscape:pagecheckerboard="0"
     inkscape:deskcolor="#d1d1d1"
     inkscape:document-units="mm"
     showgrid="true"
     inkscape:lockguides="true"
     inkscape:zoom="3.9156336"
     inkscape:cx="44.564947"
     inkscape:cy="115.5624"
     inkscape:window-width="1920"
     inkscape:window-height="991"
     inkscape:window-x="-9"
     inkscape:window-y="-9"
     inkscape:window-maximized="1"
     inkscape:current-layer="layer1">
    <inkscape:grid
       id="grid1"
       units="mm"
       originx="0"
       originy="0"
       spacingx="0.99999997"
       spacingy="0.99999997"
       empcolor="#0099e5"
       empopacity="0.30196078"
       color="#0099e5"
       opacity="0.14901961"
       empspacing="8"
       dotted="false"
       gridanglex="30"
       gridanglez="30"
       visible="true"
       snapvisiblegridlinesonly="true" />
  </sodipodi:namedview>
  <defs
     id="defs1" />
  <g
     inkscape:label="Layer 1"
     inkscape:groupmode="layer"
     id="layer1"
     style="stroke:#000000;stroke-opacity:1">
    <path
       id="path11"
       style="fill:#711c33;stroke-width:0"
       d="m 31.999998,7.9999995 a 7.9999995,7.9999995 0 0 1 -8,7.9999995 A 7.9999995,7.9999995 0 0 1 15.999999,7.9999995 7.9999995,7.9999995 0 0 1 23.999998,0 a 7.9999995,7.9999995 0 0 1 8,7.9999995 z M 31.999999,16 v -10e-7 h 16 L 47.999998,17 c 0,0 1e-6,6.999999 -7.999999,6.999999 -8,0 -8,-7.999999 -8,-7.999999 z m 7.649856,3.349888 M 31.999999,24 v -1e-6 h 16 L 47.999998,25 c 0,0 1e-6,6.999999 -7.999999,6.999999 -8,0 -8,-7.999999 -8,-7.999999 z m 7.649856,3.349888 M 31.999998,15.999999 h 10e-7 v 16 l -1.000001,-10e-7 c 0,0 -6.999999,10e-7 -6.999999,-7.999999 0,-8 7.999999,-8 7.999999,-8 z M 28.65011,23.649855 M 36.999999,4.9999998 C 39.848,2.1519991 47.999997,0 47.999997,0 c 0,0 -1.228762,7.2287637 -4.999998,11 -3.771236,3.771236 -11.000001,4.999999 -11.000001,4.999999 0,0 2.152,-8.1519981 5.000001,-10.9999992 z M 0,0 V 8.0000285 A 7.9999995,7.9999995 0 0 1 8.0000285,0 Z M 8.0000285,0 A 7.9999995,7.9999995 0 0 1 16.000057,8.0000285 V 0 Z M 16.000057,8.0000285 A 7.9999995,7.9999995 0 0 1 8.0000285,16.000057 H 16.000057 Z M 8.0000285,16.000057 A 7.9999995,7.9999995 0 0 1 0,8.0000285 v 8.0000285 z m 0,-12.0003011 A 3.9999993,3.9999995 0 0 0 4.0002726,8.0000285 3.9999993,3.9999995 0 0 0 8.0000285,11.999784 3.9999993,3.9999995 0 0 0 12.000301,8.0000285 3.9999993,3.9999995 0 0 0 8.0000285,3.9997559 Z M 0,15.999999 h 15.999999 c 0,0 7.999999,0 8,8 1e-6,7.999999 -8,8.000002 -8,8.000002 H 0 Z" />
  </g>
</svg>
